<?xml version="1.0" encoding="UTF-8" standalone="no"?>
<!DOCTYPE svg PUBLIC "-//W3C//DTD SVG 1.1//EN" "http://www.w3.org/Graphics/SVG/1.1/DTD/svg11.dtd">
<svg width="100%" height="100%" viewBox="0 0 254 254" version="1.1" xmlns="http://www.w3.org/2000/svg" xmlns:xlink="http://www.w3.org/1999/xlink" xml:space="preserve" xmlns:serif="http://www.serif.com/" style="fill-rule:evenodd;clip-rule:evenodd;stroke-linejoin:round;stroke-miterlimit:2;">
    <g id="Layer1">
    </g>
    <g id="Layer11" serif:id="Layer1">
    </g>
    <g id="Layer3" transform="matrix(1,0,0,1,-373,-373)">
        <g transform="matrix(0.299076,0,0,0.29906,212.887,338.508)">
            <path d="M960,372.818C1052.27,372.818 1127.18,447.73 1127.18,540C1127.18,632.27 1052.27,707.182 960,707.182C867.73,707.182 792.818,632.27 792.818,540C792.818,447.73 867.73,372.818 960,372.818ZM960,436.676C902.974,436.676 856.676,482.974 856.676,540C856.676,597.026 902.974,643.324 960,643.324C1017.03,643.324 1063.32,597.026 1063.32,540C1063.32,482.974 1017.03,436.676 960,436.676Z" style="fill:rgb(0, 0, 0);"/>
        </g>
        <g transform="matrix(1.45099,-0.388792,0.388792,1.45099,-349.555,62.2179)">
            <path d="M525.855,379.678C526.593,378.401 527.955,377.614 529.43,377.614C530.904,377.614 532.267,378.401 533.004,379.678C536.105,385.048 540.569,392.781 543.67,398.151C544.407,399.428 544.407,401.001 543.67,402.278C542.932,403.555 541.57,404.342 540.095,404.342L518.764,404.342C517.29,404.342 515.927,403.555 515.19,402.278C514.453,401.001 514.453,399.428 515.19,398.151C518.29,392.781 522.755,385.048 525.855,379.678Z" style="fill:rgb(0, 0, 0);"/>
        </g>
        <g transform="matrix(-1.45099,0.388792,-0.388792,-1.45099,1349.55,937.782)">
            <path d="M525.855,379.678C526.593,378.401 527.955,377.614 529.43,377.614C530.904,377.614 532.267,378.401 533.004,379.678C536.105,385.048 540.569,392.781 543.67,398.151C544.407,399.428 544.407,401.001 543.67,402.278C542.932,403.555 541.57,404.342 540.095,404.342L518.764,404.342C517.29,404.342 515.927,403.555 515.19,402.278C514.453,401.001 514.453,399.428 515.19,398.151C518.29,392.781 522.755,385.048 525.855,379.678Z" style="fill:rgb(0, 0, 0);"/>
        </g>
    </g>
</svg>
